FILE "dummy.wav" WAVE
  TRACK 01 AUDIO
    INDEX 01 00:00:00
  TRACK 02 AUDIO
    INDEX 01 03:57:36
  TRACK 03 AUDIO
    INDEX 01 08:03:67
  TRACK 04 AUDIO
    INDEX 01 11:27:18
  TRACK 05 AUDIO
    INDEX 01 15:18:00
  TRACK 06 AUDIO
    INDEX 01 18:42:17
  TRACK 07 AUDIO
    INDEX 01 22:03:72
  TRACK 08 AUDIO
    INDEX 01 25:09:25
  TRACK 09 AUDIO
    INDEX 01 28:10:13
  TRACK 10 AUDIO
    INDEX 01 33:17:47
  TRACK 11 AUDIO
    INDEX 01 37:04:58
